<?xml version="1.0" standalone="no"?>
<!DOCTYPE svg PUBLIC "-//W3C//DTD SVG 20010904//EN"
 "http://www.w3.org/TR/2001/REC-SVG-20010904/DTD/svg10.dtd">
<svg version="1.0" xmlns="http://www.w3.org/2000/svg"
 width="300.000000pt" height="405.000000pt" viewBox="0 0 300.000000 405.000000"
 preserveAspectRatio="xMidYMid meet">
<metadata>
Created by potrace 1.10, written by Peter Selinger 2001-2011
</metadata>
<g transform="translate(0.000000,405.000000) scale(0.100000,-0.100000)"
fill="#000000" stroke="none">
<path d="M1345 3946 c-357 -69 -661 -340 -875 -778 -336 -686 -332 -1625 11
-2309 194 -389 478 -654 794 -741 115 -31 335 -31 450 0 323 89 606 358 806
766 112 230 193 512 230 811 17 129 17 531 0 660 -39 312 -117 579 -241 830
-96 194 -182 317 -315 451 -149 151 -314 251 -495 298 -88 23 -276 29 -365 12z
m361 -56 c512 -131 926 -767 1015 -1560 15 -135 15 -475 0 -610 -58 -521 -258
-987 -546 -1275 -149 -149 -298 -240 -470 -286 -112 -31 -297 -31 -410 -1
-815 218 -1266 1562 -905 2697 187 586 566 988 995 1054 81 13 231 4 321 -19z"/>
<path d="M1440 3795 c0 -41 -1 -78 -2 -82 -2 -5 6 -8 17 -8 16 0 21 8 25 43
l5 44 32 -46 c21 -29 40 -46 53 -46 18 0 20 6 20 79 0 70 -2 79 -19 84 -17 4
-20 -1 -23 -42 l-3 -46 -33 48 c-20 29 -40 47 -52 47 -18 0 -20 -7 -20 -75z"/>
<path d="M1255 3815 c-52 -51 -17 -135 56 -135 76 0 114 75 68 134 -28 36 -89
37 -124 1z m101 -47 c5 -16 1 -27 -16 -40 -20 -16 -25 -17 -44 -5 -29 20 -32
52 -5 71 26 18 54 7 65 -26z"/>
<path d="M1653 3775 c-29 -35 -53 -66 -53 -68 0 -12 34 -16 46 -6 20 16 74 1
74 -21 0 -14 39 -37 46 -27 1 2 -17 171 -20 173 0 1 -10 4 -21 7 -15 4 -32 -9
-72 -58z m67 -20 c0 -27 -1 -28 -24 -19 -12 5 -13 9 -3 25 16 26 27 24 27 -6z"/>
<path d="M1140 3780 c-12 -7 -9 -20 20 -79 36 -75 37 -76 60 -61 12 7 9 20
-20 79 -36 75 -37 76 -60 61z"/>
<path d="M1815 3715 c-20 -36 -34 -69 -31 -73 2 -4 25 -18 51 -32 39 -21 47
-23 55 -10 7 11 1 20 -25 35 l-33 21 30 53 c25 43 28 55 17 62 -23 14 -26 12
-64 -56z"/>
<path d="M1044 3725 c-18 -7 -36 -25 -44 -44 -35 -87 82 -157 140 -83 11 13
20 31 20 38 0 21 -34 17 -48 -6 -16 -26 -47 -25 -66 2 -19 26 -6 55 26 60 26
3 36 33 15 41 -7 3 -27 -1 -43 -8z"/>
<path d="M1994 3592 l-51 -57 40 -32 c48 -40 93 -44 125 -10 34 36 29 79 -15
122 -20 19 -39 35 -42 35 -3 0 -29 -26 -57 -58z m96 -42 c0 -35 -52 -54 -78
-28 -8 8 -5 19 16 43 25 29 29 31 45 17 9 -8 17 -23 17 -32z"/>
<path d="M1383 3626 c-181 -42 -358 -181 -495 -390 -150 -228 -254 -534 -300
-886 -16 -126 -16 -517 0 -650 58 -460 220 -843 456 -1075 154 -152 279 -209
456 -210 186 0 311 56 471 215 233 230 386 586 450 1050 18 125 18 564 1 685
-53 373 -165 687 -323 908 -72 101 -201 227 -282 275 -130 78 -300 108 -434
78z m137 -250 c0 -209 2 -235 17 -240 9 -4 19 -3 23 1 4 4 42 98 85 208 43
110 80 203 84 207 3 4 13 3 20 -2 12 -7 0 -47 -68 -220 -79 -201 -82 -212 -65
-225 11 -8 21 -15 24 -15 3 0 75 70 160 155 124 125 156 153 167 143 12 -9
-14 -40 -142 -168 -116 -116 -154 -160 -149 -173 3 -9 10 -17 15 -17 5 0 101
40 214 89 185 80 206 87 215 72 8 -16 -17 -29 -204 -110 -202 -87 -213 -94
-208 -117 l4 -24 269 0 c148 0 269 -2 269 -4 0 -2 3 -11 6 -20 6 -14 -22 -16
-271 -16 l-276 0 3 -22 c3 -19 47 -39 313 -144 171 -68 313 -124 316 -126 4
-2 10 -14 14 -27 6 -18 4 -23 -6 -18 -8 3 -157 62 -332 132 l-318 126 -43 -43
-43 -43 156 -110 156 -110 60 3 c82 4 198 -14 244 -38 21 -10 51 -34 65 -51
32 -37 29 -65 -10 -116 l-24 -32 75 -52 c41 -28 75 -58 75 -66 0 -17 -4 -15
-94 50 l-68 49 -37 -36 c-84 -82 -174 -17 -150 110 5 26 7 49 5 52 -11 11 -36
-62 -36 -107 0 -59 31 -103 84 -121 39 -13 68 -4 114 35 25 21 32 23 32 10 0
-73 -122 -164 -222 -165 -66 0 -82 8 -244 121 -151 106 -175 128 -167 159 15
57 94 71 175 32 57 -28 79 -26 92 11 14 40 -3 78 -48 107 l-39 25 37 6 c20 3
38 8 40 10 2 2 -66 52 -150 111 l-154 106 0 -72 0 -73 85 -39 c47 -22 85 -41
85 -44 0 -3 -17 -4 -38 -2 -21 2 -75 -5 -120 -16 l-82 -19 0 163 c0 162 8 217
32 212 34 -6 70 14 84 47 25 61 15 177 -12 134 -3 -6 -26 -19 -49 -29 -58 -25
-81 -60 -68 -103 l9 -32 16 31 c16 29 48 63 48 50 0 -4 -11 -23 -24 -44 -14
-20 -28 -49 -31 -65 -8 -30 -24 -46 -26 -25 -1 7 0 25 1 40 2 29 -12 38 -76
54 -20 5 -23 3 -18 -12 21 -65 28 -75 56 -81 42 -8 48 -33 48 -198 0 -164 6
-155 -98 -155 -62 0 -152 29 -152 49 0 3 38 26 85 49 l85 42 0 65 c0 36 -1 65
-3 65 -12 0 -265 -198 -260 -204 3 -3 15 -6 25 -6 29 0 21 -15 -17 -33 -69
-33 -94 -119 -49 -168 23 -25 30 -24 94 17 75 48 120 59 164 40 41 -17 71 -58
59 -80 -12 -23 -251 -196 -300 -217 -88 -40 -184 -33 -251 18 -41 31 -72 79
-72 112 l0 25 28 -27 c82 -79 197 -31 197 81 0 45 -20 112 -34 112 -4 0 -5
-29 -3 -63 5 -70 -12 -118 -48 -137 -29 -16 -57 -4 -99 41 l-36 39 -104 -80
c-57 -44 -105 -80 -107 -80 -2 0 -4 6 -4 14 0 8 45 47 100 88 l99 75 -29 28
c-40 38 -41 93 -4 143 53 69 203 110 308 83 l46 -11 135 101 134 101 -42 41
c-23 22 -45 40 -49 39 -4 -1 -152 -64 -328 -141 -257 -111 -320 -135 -320
-121 0 10 6 22 13 27 6 6 150 70 320 143 169 73 307 136 307 141 0 39 -3 39
-275 39 -258 0 -263 0 -258 20 5 19 14 20 263 20 253 0 259 0 265 21 4 11 5
22 3 23 -1 1 -93 37 -203 80 -110 43 -203 81 -207 85 -4 3 -3 13 2 21 7 12 42
1 202 -63 106 -42 200 -79 208 -82 9 -3 21 4 28 16 13 21 5 31 -139 175 -122
122 -151 156 -141 166 10 10 44 -19 167 -142 142 -142 156 -153 171 -138 15
14 9 32 -71 217 -66 152 -85 205 -77 213 8 8 15 8 21 3 5 -6 46 -95 91 -200
45 -104 85 -193 89 -197 3 -4 16 -5 29 -2 22 6 22 7 22 240 0 227 1 234 20
234 19 0 20 -7 20 -234z m173 194 c4 -4 -26 -92 -67 -196 l-75 -189 0 206 c-1
113 1 208 4 211 7 6 126 -21 138 -32z m-243 -187 c0 -119 -3 -213 -6 -210 -4
4 -44 91 -89 195 l-82 189 51 16 c28 9 58 18 66 21 8 2 25 5 38 5 l22 1 0
-217z m461 61 l23 -25 -144 -144 c-80 -80 -147 -140 -148 -135 -3 9 64 187
135 357 l13 32 49 -30 c27 -17 60 -42 72 -55z m-656 -79 c62 -141 96 -225 92
-225 -1 0 -64 62 -141 139 l-138 138 58 46 c32 26 62 43 66 39 4 -4 32 -65 63
-137z m794 -71 c24 -30 39 -59 35 -63 -11 -9 -340 -151 -351 -151 -4 0 53 61
127 135 74 74 137 135 140 135 3 0 25 -25 49 -56z m-894 -94 c77 -77 136 -140
132 -140 -5 0 -208 78 -365 141 l-22 9 27 38 c16 20 37 49 48 64 11 15 25 28
30 28 6 0 73 -63 150 -140z m1036 -135 c23 -47 40 -87 37 -90 -3 -3 -112 -4
-242 -3 l-237 3 187 80 c102 44 188 83 190 88 12 18 26 1 65 -78z m-1141 -21
l175 -69 -219 -3 c-120 -1 -221 0 -223 2 -3 2 12 39 31 81 27 59 39 75 48 67
7 -5 92 -41 188 -78z m545 -150 c-8 -13 -20 -24 -25 -24 -6 0 -3 12 7 26 12
19 14 30 6 42 -8 13 -6 20 6 29 14 10 16 7 19 -18 2 -17 -4 -41 -13 -55z
m-371 -33 c-15 -15 -546 -242 -552 -236 -6 5 34 162 54 215 l14 35 247 -3
c139 -1 242 -6 237 -11z m1086 -101 c17 -61 30 -113 29 -114 -4 -3 -506 194
-539 211 -13 7 454 22 471 16 3 -1 21 -52 39 -113z m-830 69 c0 -6 -4 -7 -10
-4 -5 3 -10 11 -10 16 0 6 5 7 10 4 6 -3 10 -11 10 -16z m-162 -114 c-13 -12
-61 -49 -107 -83 l-85 -62 -86 7 c-140 10 -245 -30 -304 -116 -24 -35 -28 -48
-23 -86 2 -25 13 -55 23 -66 10 -11 14 -23 8 -28 -18 -16 -133 -101 -136 -101
-4 0 9 195 15 230 18 95 20 100 36 100 9 0 156 60 326 134 l310 134 23 -21 23
-21 -23 -21z m715 -60 c174 -69 321 -125 326 -125 10 0 29 -116 38 -234 l6
-79 -46 32 c-51 34 -54 43 -32 81 8 14 14 40 15 59 0 28 -8 43 -44 76 -58 56
-116 75 -258 82 l-117 6 -130 92 c-126 89 -130 92 -115 113 8 12 21 22 27 22
7 0 155 -56 330 -125z m-643 -14 c0 -26 -8 -34 -67 -67 -38 -20 -75 -43 -85
-51 -10 -9 -18 -11 -22 -4 -4 5 31 38 76 72 46 35 85 67 86 71 7 16 12 7 12
-21z m396 -96 c24 -19 25 -23 13 -44 -8 -12 -35 -33 -61 -47 -26 -13 -49 -28
-53 -34 -4 -7 -12 -7 -25 0 -10 5 -47 10 -82 11 l-63 1 55 13 c30 8 83 17 117
20 109 12 108 47 -3 101 -70 35 -74 39 -74 71 l0 33 74 -51 c41 -29 87 -62
102 -74z m-542 -86 c-3 -5 -17 -9 -31 -9 -25 0 -26 0 -8 20 14 15 21 17 31 9
8 -6 11 -15 8 -20z m600 -20 c24 -19 36 -66 21 -81 -3 -3 -26 6 -52 18 -25 13
-65 24 -87 24 l-41 1 60 29 c74 35 67 34 99 9z m-373 -35 c57 -8 127 -13 154
-9 49 6 50 5 23 -10 -36 -20 -48 -44 -48 -95 l0 -42 -35 31 c-25 22 -46 31
-70 31 -24 0 -35 5 -39 18 -12 37 -54 65 -105 70 -50 4 -109 -17 -184 -65 -24
-16 -29 -16 -37 -3 -5 8 -10 27 -10 41 0 21 7 28 33 37 49 15 201 14 318 -4z
m90 -155 c10 -10 19 -24 19 -30 0 -33 -248 -257 -331 -299 -68 -35 -152 -18
-236 46 -50 38 -43 49 30 49 79 0 108 15 284 148 75 56 145 107 156 114 23 13
45 5 78 -28z m203 -108 c153 -112 204 -136 271 -129 57 7 59 -9 8 -51 -41 -34
-111 -61 -157 -61 -45 1 -103 30 -172 88 l-61 51 5 50 c4 41 0 58 -22 95 -48
81 -36 77 128 -43z m-909 -70 c21 -18 50 -37 64 -42 14 -5 35 -25 46 -45 12
-22 43 -50 79 -73 52 -32 68 -36 129 -38 52 -1 73 -6 79 -17 12 -21 61 -46 89
-46 23 0 117 54 163 94 l28 25 47 -39 c25 -21 68 -49 95 -63 l48 -24 -38 -7
c-22 -4 -72 -23 -111 -42 l-73 -35 -52 27 c-100 50 -197 70 -277 54 -58 -11
-84 -28 -104 -69 -8 -17 -22 -27 -39 -29 -14 -2 -34 -12 -44 -23 -16 -17 -16
-26 -6 -83 16 -83 16 -81 -14 -95 -23 -10 -28 -9 -46 14 -28 35 -60 32 -97
-10 -40 -46 -91 -148 -87 -171 9 -40 108 -260 127 -279 28 -28 44 -14 106 91
41 69 53 98 53 132 0 23 3 42 6 42 3 0 26 -8 52 -18 26 -10 85 -31 132 -47
122 -40 121 -39 54 -64 -32 -13 -67 -30 -76 -38 -40 -36 -6 -143 45 -143 11 0
32 11 46 24 27 25 122 66 155 66 10 0 40 8 66 17 l47 17 144 -53 c79 -29 149
-54 155 -56 23 -7 54 25 54 56 0 34 -33 58 -113 85 -27 9 -45 20 -40 24 4 4
80 31 168 60 242 80 330 130 387 219 31 49 35 87 14 116 -16 22 -25 19 -190
-63 l-109 -54 8 59 c4 32 8 81 9 108 l1 50 -43 14 c-31 10 -50 24 -67 51 -22
35 -29 39 -94 50 -39 6 -76 9 -83 5 -7 -3 -4 0 7 7 10 7 31 24 45 38 23 21 36
25 91 25 48 0 76 6 112 25 50 25 107 81 107 104 0 7 18 21 40 31 47 21 117 93
126 129 3 14 9 26 12 26 3 0 32 -17 64 -37 l59 -38 -5 -185 c-16 -556 -185
-1026 -466 -1293 -103 -99 -209 -158 -325 -182 -88 -18 -132 -18 -220 0 -404
85 -719 614 -785 1320 -12 132 -13 305 -2 305 5 0 44 26 87 59 l79 59 21 -47
c12 -25 39 -61 60 -80z m769 67 c5 -14 6 -38 2 -54 -10 -37 -145 -169 -219
-213 -55 -32 -59 -33 -94 -20 -20 8 -38 19 -40 25 -2 6 32 38 74 71 43 34 116
98 163 142 47 44 90 79 95 77 6 -1 14 -14 19 -28z m92 -190 c46 -35 83 -66 84
-69 0 -4 -16 -14 -36 -24 -44 -21 -75 -11 -151 45 l-53 41 27 34 c16 19 32 35
37 35 5 0 47 -28 92 -62z m-402 -183 c37 -8 96 -30 130 -48 l62 -34 34 23 c57
40 157 68 235 67 84 -1 125 -15 125 -42 0 -11 9 -23 20 -26 11 -3 20 -13 20
-21 0 -10 12 -14 40 -14 22 0 40 -3 40 -7 -1 -5 -11 -61 -24 -125 -12 -65 -21
-118 -19 -118 2 0 74 34 160 75 86 41 159 75 163 75 13 0 -7 -67 -28 -98 -53
-74 -139 -117 -416 -207 l-220 -72 110 -42 c125 -49 146 -64 124 -85 -13 -12
-37 -5 -168 44 -141 52 -157 56 -193 46 -21 -5 -39 -14 -39 -18 0 -4 -16 -8
-35 -8 -45 0 -133 -35 -166 -66 -37 -36 -56 -31 -69 17 -6 23 -8 44 -5 47 3 4
55 25 115 47 l109 40 -137 50 c-75 27 -140 49 -144 47 -4 -1 -37 12 -73 28
-85 38 -137 41 -87 4 34 -25 22 -89 -37 -191 -30 -51 -57 -91 -60 -88 -4 2
-34 65 -66 141 l-59 136 34 65 c19 36 45 77 58 90 l23 25 25 -23 c13 -12 24
-31 24 -41 0 -22 16 -24 28 -3 11 21 60 29 80 13 9 -8 13 -8 9 -1 -8 13 -37
159 -37 186 0 13 8 17 35 17 23 0 35 5 35 14 0 8 7 16 15 20 8 3 15 14 15 25
0 24 8 30 62 40 62 13 76 12 152 -4z"/>
<path d="M1653 992 c-32 -2 -48 -10 -66 -32 l-25 -29 -20 22 c-20 22 -28 22
-204 21 -106 0 -188 4 -196 9 -8 7 -16 7 -23 0 -6 -6 -28 -6 -64 0 -48 9 -57
8 -75 -8 -24 -22 -26 -62 -4 -94 15 -20 23 -22 80 -19 60 3 77 -3 54 -17 -16
-10 -12 -71 7 -86 19 -17 36 -18 167 -18 83 0 97 -3 87 -14 -13 -17 -4 -75 15
-98 11 -12 36 -16 117 -16 57 -1 108 3 115 9 6 6 12 30 12 54 0 25 5 53 12 63
11 18 15 18 39 6 14 -8 29 -12 31 -9 3 2 38 5 79 5 106 2 125 25 69 81 -17 17
-29 33 -26 35 2 3 43 5 90 5 77 -1 87 2 101 21 21 29 19 50 -6 73 -26 24 -59
27 -226 23 -39 -2 -78 2 -85 7 -7 5 -32 8 -55 6z m-603 -43 c0 -5 -10 -8 -22
-6 -14 1 -23 -4 -26 -15 -3 -14 3 -18 24 -18 20 0 25 -3 17 -11 -15 -15 -44
-8 -57 14 -9 15 -7 22 12 37 22 18 52 18 52 -1z m618 -27 c-2 -23 -8 -27 -33
-27 -24 0 -31 5 -33 24 -5 32 23 54 50 40 13 -7 18 -19 16 -37z m32 8 c0 -22
-4 -40 -8 -40 -5 0 -8 17 -6 38 3 45 3 42 9 42 3 0 5 -18 5 -40z m210 24 c0
-8 5 -12 11 -9 6 4 16 -1 23 -10 12 -16 13 -16 19 -1 9 22 34 20 46 -3 15 -27
-13 -50 -40 -33 -11 7 -19 8 -19 2 0 -5 -4 -10 -10 -10 -5 0 -10 9 -10 20 0
11 -4 20 -10 20 -5 0 -10 -9 -10 -20 0 -11 -4 -20 -10 -20 -5 0 -10 18 -10 40
0 22 5 40 10 40 6 0 10 -7 10 -16z m-765 -32 c0 -37 -20 -43 -27 -9 -6 30 1
49 16 44 6 -2 11 -18 11 -35z m-47 16 c22 -22 14 -48 -13 -48 -29 0 -36 29 -7
31 16 1 16 2 -1 6 -9 2 -15 9 -12 14 8 12 19 11 33 -3z m96 6 c9 -3 16 -17 16
-30 0 -19 -5 -24 -25 -24 -29 0 -36 29 -7 31 16 1 16 2 -1 6 -9 2 -15 9 -12
14 7 11 9 11 29 3z m70 -3 c3 -5 -4 -11 -15 -14 -12 -3 -18 -10 -14 -16 3 -6
11 -9 16 -6 5 4 9 1 9 -4 0 -17 -30 -13 -36 4 -12 32 23 63 40 36z m54 -24 c3
-25 0 -28 -19 -25 -31 4 -37 28 -7 29 17 1 18 3 6 6 -10 2 -18 9 -18 14 0 25
35 2 38 -24z m100 1 c2 -16 -1 -28 -7 -28 -6 0 -12 10 -12 23 l-2 22 -4 -22
c-5 -28 -23 -30 -23 -3 0 27 -18 25 -23 -2 -3 -18 -5 -16 -6 8 -1 29 1 31 37
30 33 -1 37 -4 40 -28z m60 -1 c3 -23 0 -27 -22 -27 -29 0 -37 29 -8 31 16 1
16 2 -1 6 -22 6 -11 25 11 21 10 -2 18 -15 20 -31z m47 23 c3 -5 0 -10 -7 -11
-10 0 -10 -2 0 -6 19 -8 14 -33 -7 -33 -16 0 -19 6 -17 28 2 15 4 28 5 30 3 6
20 1 26 -8z m233 -23 c3 -25 0 -28 -19 -25 -31 4 -37 28 -7 29 17 1 18 3 6 6
-10 2 -18 9 -18 14 0 25 35 2 38 -24z m68 15 c9 -13 12 -13 17 2 7 17 37 22
37 6 0 -5 -7 -10 -16 -10 -9 0 -14 -6 -11 -12 2 -7 10 -12 16 -10 6 1 11 -2
11 -8 0 -15 -40 -12 -41 3 0 10 -2 10 -6 0 -8 -20 -23 -15 -23 7 0 11 -4 20
-10 20 -5 0 -10 -9 -10 -20 0 -11 -4 -20 -10 -20 -10 0 -14 42 -5 52 10 10 40
4 51 -10z m-266 -36 c0 -8 -4 -18 -10 -21 -5 -3 -10 3 -10 14 0 12 5 21 10 21
6 0 10 -6 10 -14z m46 -27 c3 -6 21 -9 39 -7 l32 4 -20 -28 -21 -28 -21 20
c-12 11 -29 20 -39 20 -15 0 -16 3 -6 15 15 18 26 19 36 4z m168 -24 c-4 -8
-10 -12 -15 -9 -14 8 -10 24 6 24 9 0 12 -6 9 -15z m-624 -20 c0 -8 5 -15 10
-15 6 0 10 7 10 15 0 8 5 15 10 15 6 0 10 -16 10 -35 0 -19 -4 -35 -10 -35 -5
0 -10 7 -10 15 0 8 -4 15 -10 15 -5 0 -10 -7 -10 -15 0 -8 -4 -15 -10 -15 -5
0 -10 16 -10 35 0 19 5 35 10 35 6 0 10 -7 10 -15z m240 -19 c0 -25 -5 -35
-20 -39 -27 -7 -47 19 -33 41 6 10 16 16 22 15 6 -2 11 2 11 7 0 6 5 10 10 10
6 0 10 -15 10 -34z m340 24 c0 -5 -9 -10 -21 -10 -14 0 -19 -5 -17 -17 2 -11
11 -17 21 -15 20 3 23 -14 3 -21 -25 -10 -50 17 -42 46 5 20 13 27 31 27 14 0
25 -4 25 -10z m99 -21 c6 -18 11 -33 11 -33 0 -1 -15 -2 -34 -2 -32 0 -33 1
-25 24 20 53 32 55 48 11z m-579 6 c17 -20 5 -45 -20 -45 -11 0 -23 7 -26 15
-6 15 11 45 26 45 4 0 13 -7 20 -15z m70 -21 c0 -30 -20 -32 -21 -1 l-2 22 -4
-22 c-6 -31 -23 -29 -23 1 0 15 7 26 18 29 25 5 32 -1 32 -29z m223 27 c4 -1
7 -12 7 -26 0 -20 -5 -25 -25 -25 -29 0 -35 26 -7 33 12 3 11 5 -6 6 -16 1
-26 -6 -29 -19 -7 -28 -23 -25 -23 4 0 30 14 34 83 27z m46 -12 c-10 -6 -11
-9 -1 -9 6 0 12 -7 12 -15 0 -9 -9 -15 -22 -14 -19 1 -19 2 -5 6 18 5 18 5 0
19 -15 12 -16 15 -3 23 8 5 18 7 23 4 5 -3 3 -9 -4 -14z m-168 -11 l2 -23 4
23 c6 30 23 28 23 -3 0 -20 -5 -25 -25 -25 -20 0 -25 5 -25 25 0 31 19 33 21
3z m209 -22 c0 -23 -16 -27 -17 -5 -1 10 2 19 8 19 5 0 9 -6 9 -14z m130 4 c0
-5 -4 -10 -10 -10 -5 0 -10 5 -10 10 0 6 5 10 10 10 6 0 10 -4 10 -10z m110 0
c0 -5 -4 -10 -10 -10 -5 0 -10 5 -10 10 0 6 5 10 10 10 6 0 10 -4 10 -10z
m-450 -100 c0 -22 -4 -40 -10 -40 -5 0 -10 14 -10 30 0 17 -5 30 -12 30 -9 0
-8 4 2 10 25 16 30 12 30 -30z m60 25 c16 -19 -1 -65 -24 -65 -25 0 -29 20 -4
21 l23 2 -22 4 c-14 3 -23 12 -23 22 0 33 28 42 50 16z m65 5 c3 -6 -4 -10
-17 -11 l-23 0 23 -9 c25 -11 29 -38 7 -46 -8 -4 -23 -3 -32 1 -16 7 -15 9 7
15 16 5 19 8 8 9 -26 1 -25 51 1 51 11 0 23 -4 26 -10z m61 -5 c4 -8 1 -22 -6
-30 -9 -10 -9 -15 -1 -15 6 0 11 -4 11 -10 0 -5 -11 -10 -25 -10 -28 0 -32 12
-10 30 8 7 15 17 15 22 0 6 -7 8 -15 4 -15 -5 -20 5 -8 17 11 12 33 7 39 -8z"/>
<path d="M1624 935 c-3 -8 -3 -19 1 -25 10 -16 35 7 28 26 -7 18 -22 18 -29
-1z"/>
<path d="M1972 919 c2 -6 8 -10 13 -10 5 0 11 4 13 10 2 6 -4 11 -13 11 -9 0
-15 -5 -13 -11z"/>
<path d="M1350 795 c0 -8 5 -15 10 -15 6 0 10 7 10 15 0 8 -4 15 -10 15 -5 0
-10 -7 -10 -15z"/>
<path d="M1220 795 c0 -8 5 -15 10 -15 6 0 10 7 10 15 0 8 -4 15 -10 15 -5 0
-10 -7 -10 -15z"/>
<path d="M1450 690 c0 -5 5 -10 10 -10 6 0 10 5 10 10 0 6 -4 10 -10 10 -5 0
-10 -4 -10 -10z"/>
<path d="M1185 1753 c-70 -14 -64 5 -58 -175 5 -151 7 -164 27 -180 11 -10 96
-47 188 -83 l166 -66 177 65 c98 36 179 66 180 68 2 2 6 83 10 180 l8 177 -29
8 c-47 12 -155 6 -209 -12 -27 -9 -72 -30 -99 -47 -42 -26 -50 -27 -65 -15
-60 53 -220 96 -296 80z m163 -48 c29 -9 52 -19 52 -23 0 -4 -23 -6 -52 -5
-65 4 -90 -15 -87 -67 2 -19 -3 -45 -9 -57 -9 -15 -9 -29 -2 -48 13 -34 13
-35 -7 -35 -21 0 -53 -29 -53 -49 0 -13 -2 -13 -14 -1 -9 11 -15 58 -20 158
l-6 142 73 0 c40 0 97 -7 125 -15z m497 -142 c-4 -101 -11 -161 -18 -165 -19
-12 -37 -9 -37 6 0 8 -11 28 -25 45 -18 21 -24 37 -20 53 4 16 -1 33 -15 50
-12 16 -16 29 -10 33 17 10 11 54 -10 75 -17 17 -30 20 -72 16 -28 -3 -47 -1
-42 4 22 20 105 39 178 40 l79 0 -8 -157z m-505 78 c0 -5 -7 -16 -15 -25 -13
-13 -13 -15 3 -18 12 -3 8 -6 -10 -10 -26 -5 -28 -3 -28 28 0 30 3 34 25 34
14 0 25 -4 25 -9z m50 0 c0 -5 -6 -12 -12 -14 -8 -3 -6 -6 5 -6 20 -1 22 -14
4 -29 -18 -16 -35 -1 -32 28 3 31 2 30 20 30 8 0 15 -4 15 -9z m70 -1 c0 -5
-4 -10 -10 -10 -5 0 -10 -12 -10 -27 0 -32 -15 -20 -24 20 -6 24 -4 27 19 27
14 0 25 -4 25 -10z m30 -16 c0 -14 4 -23 10 -19 6 3 10 15 10 26 0 10 5 19 10
19 6 0 10 -11 10 -25 0 -25 -26 -46 -47 -38 -15 5 -18 63 -3 63 6 0 10 -12 10
-26z m100 11 c18 -21 5 -45 -25 -45 -21 0 -25 5 -25 30 0 23 5 30 19 30 10 0
24 -7 31 -15z m40 -14 c0 -17 -4 -33 -10 -36 -6 -4 -10 8 -10 29 0 20 5 36 10
36 6 0 10 -13 10 -29z m68 17 c16 -16 15 -23 -4 -42 -12 -12 -20 -13 -35 -6
-10 6 -19 16 -19 23 0 16 20 37 35 37 6 0 16 -5 23 -12z m-88 -88 c0 -5 -2
-10 -4 -10 -3 0 -8 5 -11 10 -3 6 -1 10 4 10 6 0 11 -4 11 -10z m-165 -30 c20
-38 20 -36 -19 -36 -19 0 -33 3 -31 7 3 3 9 18 14 33 13 33 17 33 36 -4z m142
-10 c10 -25 9 -26 -23 -26 -39 0 -39 -2 -18 38 16 32 23 30 41 -12z m131 -4
c-2 -15 -10 -21 -28 -21 -31 0 -40 33 -14 52 22 16 46 -1 42 -31z m-405 27
c-7 -2 -13 -16 -13 -29 0 -13 -4 -24 -10 -24 -5 0 -10 11 -10 24 0 13 -6 27
-12 29 -7 3 3 5 22 5 19 0 29 -2 23 -5z m69 -23 c-5 -32 -11 -38 -22 -20 -7
10 -10 11 -10 3 0 -7 -4 -13 -10 -13 -5 0 -10 14 -10 31 0 27 3 30 28 27 22
-2 26 -7 24 -28z m138 0 c0 -25 -4 -30 -25 -30 -21 0 -25 5 -25 30 0 25 4 30
25 30 21 0 25 -5 25 -30z m130 5 c0 -25 -24 -44 -38 -30 -4 4 -1 10 6 12 6 3
12 13 12 24 0 10 5 19 10 19 6 0 10 -11 10 -25z m-376 -98 c9 -15 7 -21 -9
-33 -27 -20 -39 -13 -43 25 -3 29 -1 32 19 29 12 -2 27 -11 33 -21z m36 -12
c0 -19 -4 -35 -10 -35 -5 0 -10 16 -10 35 0 19 5 35 10 35 6 0 10 -16 10 -35z
m60 25 c0 -5 -5 -10 -12 -10 -6 0 -4 -6 6 -13 16 -12 16 -14 2 -26 -11 -9 -20
-10 -33 -2 -16 9 -15 10 7 11 25 1 25 1 3 10 -15 6 -21 15 -17 25 7 16 44 21
44 5z m64 1 c3 -5 -4 -11 -15 -14 -12 -3 -18 -10 -15 -16 4 -6 13 -8 21 -4 8
3 15 0 15 -5 0 -27 -44 -23 -54 5 -11 28 33 59 48 34z m36 -27 c0 -21 -4 -33
-10 -29 -5 3 -10 19 -10 36 0 16 5 29 10 29 6 0 10 -16 10 -36z m54 30 c23 -9
20 -29 -8 -47 -29 -19 -34 -16 -28 23 4 31 9 34 36 24z m46 -19 c0 -16 6 -25
15 -25 9 0 15 9 15 25 0 14 5 25 10 25 6 0 10 -11 10 -25 0 -14 0 -28 0 -32 0
-3 -15 -8 -35 -10 -34 -3 -35 -3 -35 32 0 19 5 35 10 35 6 0 10 -11 10 -25z
m96 8 c13 -17 13 -17 14 0 0 30 20 18 20 -12 0 -34 -17 -50 -26 -26 -6 14 -8
14 -20 -2 -12 -16 -13 -14 -14 20 0 41 6 46 26 20z m92 -8 c17 -36 15 -50 -3
-35 -12 10 -18 10 -30 0 -18 -15 -19 -3 -5 34 12 33 24 33 38 1z m-212 -66 c4
-7 28 -9 66 -5 33 2 57 2 54 -2 -4 -3 -41 -19 -82 -34 l-76 -27 -66 26 c-37
14 -71 29 -76 34 -4 4 24 6 63 5 39 -1 77 2 84 6 17 11 25 10 33 -3z"/>
<path d="M1560 1614 c0 -8 5 -12 10 -9 6 3 10 10 10 16 0 5 -4 9 -10 9 -5 0
-10 -7 -10 -16z"/>
<path d="M1662 1619 c2 -6 8 -10 13 -10 5 0 11 4 13 10 2 6 -4 11 -13 11 -9 0
-15 -5 -13 -11z"/>
<path d="M1680 1515 c0 -8 5 -15 10 -15 6 0 10 7 10 15 0 8 -4 15 -10 15 -5 0
-10 -7 -10 -15z"/>
<path d="M1350 1520 c0 -5 5 -10 11 -10 5 0 7 5 4 10 -3 6 -8 10 -11 10 -2 0
-4 -4 -4 -10z"/>
<path d="M1240 1405 c0 -8 5 -15 10 -15 6 0 10 7 10 15 0 8 -4 15 -10 15 -5 0
-10 -7 -10 -15z"/>
<path d="M1094 1586 c3 -60 6 -124 6 -143 0 -18 3 -33 8 -33 10 0 -2 268 -13
277 -4 5 -5 -41 -1 -101z"/>
<path d="M1900 1601 c0 -48 -3 -116 -6 -150 -5 -39 -3 -61 3 -61 7 0 13 49 17
123 4 67 9 134 12 150 4 20 2 27 -10 27 -13 0 -16 -15 -16 -89z"/>
<path d="M1053 1646 c3 -8 9 -62 13 -120 4 -58 11 -106 16 -106 5 0 6 34 3 78
-9 125 -16 162 -27 162 -5 0 -8 -6 -5 -14z"/>
<path d="M1936 1539 c-4 -67 -5 -123 -3 -126 3 -2 8 35 12 84 3 48 8 105 11
126 3 20 2 37 -4 37 -5 0 -12 -54 -16 -121z"/>
<path d="M960 1435 c-7 -8 -9 -22 -6 -31 5 -13 9 -14 21 -4 16 13 21 50 6 50
-5 0 -14 -7 -21 -15z"/>
<path d="M869 3584 c-13 -16 -9 -36 33 -133 16 -37 20 -41 34 -30 8 7 13 20
11 30 -6 21 37 64 53 54 6 -4 20 1 30 10 19 17 17 19 -63 51 -45 19 -83 34
-83 34 -1 0 -7 -7 -15 -16z m70 -70 c-10 -12 -14 -12 -20 -2 -17 26 -11 40 12
28 16 -9 18 -14 8 -26z"/>
<path d="M2131 3469 c-33 -28 -61 -53 -61 -57 1 -4 19 -27 40 -52 30 -34 42
-42 51 -33 9 9 6 20 -15 47 -35 46 -14 62 23 17 20 -25 29 -29 38 -20 9 9 7
19 -12 41 -23 27 -26 48 -7 48 4 0 18 -16 31 -36 21 -30 26 -33 39 -21 12 13
9 21 -26 65 l-39 50 -62 -49z"/>
<path d="M769 3474 c-11 -14 -9 -19 11 -35 14 -10 28 -19 33 -19 4 0 7 -4 7
-10 0 -5 -24 -10 -54 -10 -64 0 -83 -22 -44 -52 96 -73 104 -77 115 -58 10 15
6 22 -25 44 l-37 26 56 0 c49 0 79 12 79 31 0 6 -86 74 -116 92 -7 4 -18 0
-25 -9z"/>
<path d="M2275 3267 c-44 -5 -81 -11 -83 -12 -9 -8 13 -35 29 -35 27 0 55 -46
39 -65 -9 -11 -9 -18 2 -34 14 -20 17 -17 67 49 45 59 51 71 41 89 -6 12 -12
20 -13 20 -1 -1 -38 -6 -82 -12z m34 -58 c-9 -17 -13 -19 -20 -8 -14 22 -11
29 11 29 18 0 19 -3 9 -21z"/>
<path d="M627 3230 c-15 -12 -35 -36 -43 -53 -15 -29 -15 -31 2 -45 20 -15
110 -62 118 -62 11 0 46 80 46 103 0 61 -74 95 -123 57z m64 -30 c19 -11 24
-35 13 -64 -5 -14 -11 -13 -45 5 -34 17 -38 22 -29 38 8 16 21 26 38 30 2 1
12 -4 23 -9z"/>
<path d="M2332 3110 c-31 -29 -36 -63 -17 -103 20 -43 38 -51 80 -36 32 12 32
13 20 43 -14 32 -40 43 -40 16 0 -21 -18 -25 -30 -6 -11 18 1 43 28 60 23 15
51 -3 56 -35 3 -23 17 -39 34 -39 4 0 7 15 7 34 0 72 -87 113 -138 66z"/>
<path d="M517 3031 c-3 -14 13 -37 58 -81 59 -59 63 -61 70 -40 5 14 2 25 -6
30 -18 12 8 70 31 70 10 0 20 9 23 20 5 19 0 20 -83 20 -78 0 -88 -2 -93 -19z
m97 -36 c-4 -8 -10 -15 -14 -15 -4 0 -13 7 -20 15 -11 13 -8 15 13 15 19 0 25
-4 21 -15z"/>
<path d="M2425 2952 c-38 -14 -71 -26 -72 -27 -1 0 0 -11 4 -23 4 -18 9 -20
24 -11 31 16 41 0 19 -31 -14 -20 -18 -34 -12 -50 l8 -23 20 26 c16 19 24 23
38 15 27 -15 65 -1 72 28 6 24 -12 111 -25 117 -3 2 -37 -8 -76 -21z m60 -61
c0 -32 -23 -39 -34 -9 -11 28 -5 40 17 36 10 -2 17 -13 17 -27z"/>
<path d="M505 2900 c-28 -11 -42 -29 -59 -78 l-15 -42 77 -23 77 -24 12 31
c18 48 15 94 -7 116 -11 11 -24 20 -29 20 -5 0 -15 2 -23 4 -7 3 -22 1 -33 -4z
m53 -52 c7 -7 12 -23 12 -36 0 -23 -3 -24 -37 -17 -50 9 -56 16 -37 43 17 24
43 29 62 10z"/>
<path d="M2475 2789 c-38 -11 -71 -22 -72 -23 -7 -6 10 -36 19 -36 6 0 41 9
78 20 59 17 67 23 63 40 -6 24 0 24 -88 -1z"/>
<path d="M417 2720 c-4 -16 2 -21 36 -30 23 -6 58 -14 77 -20 25 -7 36 -6 42
3 14 22 2 31 -68 49 -86 22 -81 22 -87 -2z"/>
<path d="M2469 2707 c-26 -20 -41 -57 -34 -85 7 -28 32 -62 45 -62 18 0 19 34
3 52 -13 14 -15 23 -7 35 30 48 80 39 78 -13 0 -32 26 -60 38 -41 17 26 8 78
-17 102 -27 27 -79 33 -106 12z"/>
<path d="M402 2635 c-20 -44 -15 -84 12 -97 34 -15 52 -6 75 39 16 31 21 35
26 20 4 -10 0 -27 -9 -41 -13 -21 -13 -26 -1 -36 11 -9 17 -6 28 12 26 41 30
67 12 94 -23 35 -54 28 -84 -19 -16 -24 -28 -34 -34 -28 -7 7 -4 19 6 34 12
18 13 27 4 36 -16 16 -22 14 -35 -14z"/>
<path d="M2540 2549 c-56 -11 -84 -41 -76 -83 12 -56 33 -69 105 -62 35 3 66
8 68 10 3 2 2 13 -1 24 -6 17 -11 18 -57 10 -52 -10 -79 0 -79 28 0 18 14 25
68 32 39 6 48 11 50 30 4 25 -3 26 -78 11z"/>
<path d="M391 2493 c-15 -13 -23 -34 -28 -69 l-6 -52 54 -6 c30 -4 66 -9 82
-12 24 -5 27 -3 27 20 0 21 -5 26 -25 26 -34 0 -31 19 5 33 17 6 30 17 30 23
0 7 3 20 6 29 7 16 5 16 -25 0 -29 -14 -34 -15 -44 -2 -20 25 -52 29 -76 10z
m49 -62 c0 -24 -3 -28 -20 -24 -31 8 -25 53 7 53 8 0 13 -12 13 -29z"/>
<path d="M2562 2368 c-40 -3 -75 -8 -76 -10 -2 -1 -1 -29 1 -60 5 -50 8 -58
26 -58 17 0 19 5 14 39 -6 46 1 51 74 51 49 0 53 3 41 30 -6 12 -20 14 -80 8z"/>
<path d="M350 2298 c0 -24 -3 -53 -6 -64 -5 -20 -1 -22 71 -29 91 -8 95 -5 95
73 0 38 -4 52 -14 52 -14 0 -26 -29 -26 -67 0 -14 -6 -23 -16 -23 -13 0 -15 7
-9 39 5 29 3 40 -8 44 -21 8 -27 -1 -27 -40 0 -23 -5 -33 -16 -33 -12 0 -14 8
-8 45 6 41 5 45 -15 45 -18 0 -21 -6 -21 -42z"/>
<path d="M2620 2216 c0 -26 -21 -36 -82 -36 -31 0 -38 -4 -38 -20 0 -18 7 -20
60 -20 57 0 60 -1 60 -25 0 -27 1 -28 24 -19 12 5 16 21 16 75 0 62 -2 69 -20
69 -14 0 -20 -7 -20 -24z"/>
<path d="M340 2162 c0 -23 5 -31 25 -36 13 -3 37 -11 52 -17 l28 -11 -50 -17
c-37 -13 -51 -23 -53 -39 -4 -28 -4 -28 84 6 60 22 74 31 74 48 0 17 -14 27
-67 50 -38 15 -74 32 -80 37 -10 7 -13 2 -13 -21z"/>
<path d="M2522 2054 c-17 -12 -22 -25 -22 -59 0 -58 24 -75 102 -75 51 0 58 2
58 20 0 17 -7 20 -49 20 -53 0 -84 19 -74 45 7 19 43 28 88 23 31 -4 35 -1 35
19 0 21 -4 23 -58 23 -36 0 -66 -6 -80 -16z"/>
<path d="M340 1968 c0 -22 3 -23 80 -20 71 3 80 6 80 23 0 17 -8 19 -80 19
-76 0 -80 -1 -80 -22z"/>
<path d="M388 1913 c-40 -3 -48 -8 -48 -24 0 -16 7 -19 45 -19 l45 0 -40 -36
c-51 -46 -53 -74 -6 -74 18 0 54 3 80 6 37 6 46 11 46 27 0 18 -5 19 -47 14
l-48 -5 43 38 c24 22 42 47 42 59 0 22 0 22 -112 14z"/>
<path d="M2500 1888 c0 -3 -3 -13 -6 -22 -5 -12 0 -16 20 -16 33 0 34 -23 2
-38 -13 -6 -26 -22 -28 -36 -6 -31 -5 -31 28 -10 23 16 26 16 38 -1 14 -19 61
-24 78 -7 12 12 30 113 22 121 -8 9 -154 17 -154 9z m115 -48 c10 -16 -5 -50
-21 -50 -17 0 -28 24 -20 45 6 17 32 20 41 5z"/>
<path d="M2480 1716 c0 -13 6 -26 14 -29 19 -7 8 -58 -16 -75 -17 -13 -25 -42
-11 -42 4 0 41 9 84 21 56 15 78 26 82 39 3 11 0 23 -7 28 -20 16 -133 82
-140 82 -3 0 -6 -11 -6 -24z m84 -62 c20 -8 11 -24 -15 -24 -10 0 -19 7 -19
15 0 16 9 19 34 9z"/>
<path d="M374 1723 c-16 -3 -20 -9 -17 -23 5 -17 13 -19 67 -17 59 2 61 1 61
-23 0 -23 -5 -26 -57 -34 -52 -8 -58 -12 -58 -33 0 -18 4 -23 18 -20 9 3 38 8
65 12 58 8 83 38 73 87 -10 49 -23 58 -80 57 -28 -1 -61 -4 -72 -6z"/>
<path d="M797 651 c-56 -15 -70 -32 -31 -39 26 -5 36 -17 38 -41 2 -35 19 -26
48 26 36 64 26 75 -55 54z m37 -36 c-4 -8 -10 -12 -15 -9 -14 8 -10 24 6 24 9
0 12 -6 9 -15z"/>
<path d="M2125 596 c-32 -48 28 -91 69 -50 19 18 20 28 6 55 -15 27 -56 24
-75 -5z m52 -12 c8 -20 -8 -36 -26 -25 -15 10 -8 41 9 41 6 0 13 -7 17 -16z"/>
<path d="M855 540 c-21 -21 -34 -43 -30 -50 5 -8 10 -8 20 0 9 7 16 6 25 -5
19 -23 47 -18 66 10 16 25 16 27 -13 55 l-30 29 -38 -39z m60 -21 c0 -7 -8
-15 -17 -17 -18 -3 -25 18 -11 32 10 10 28 1 28 -15z"/>
<path d="M2055 570 c-4 -6 -3 -16 3 -22 8 -8 5 -16 -10 -28 -24 -19 -18 -54
12 -70 22 -12 50 -3 50 16 0 8 6 14 14 14 30 0 24 18 -18 59 -29 29 -46 39
-51 31z m43 -77 c-2 -10 -10 -18 -18 -18 -8 0 -16 8 -18 18 -2 12 3 17 18 17
15 0 20 -5 18 -17z"/>
<path d="M946 474 c-22 -27 -25 -38 -17 -47 9 -9 15 -8 22 6 6 9 21 17 33 17
13 0 26 7 30 15 3 8 0 15 -6 15 -6 0 -16 7 -22 15 -9 13 -15 10 -40 -21z"/>
<path d="M1966 456 l-28 -24 23 -31 c12 -17 29 -31 36 -31 17 0 16 12 -2 36
-29 38 -6 49 25 12 13 -16 22 -20 29 -13 7 7 2 20 -15 43 -14 17 -28 32 -32
32 -4 -1 -20 -11 -36 -24z"/>
<path d="M1006 434 c-29 -29 -13 -74 26 -74 25 0 22 17 -4 23 -12 4 -19 9 -15
13 3 4 18 -1 31 -10 25 -16 26 -15 32 10 11 44 -38 70 -70 38z m52 -23 c3 -8
-1 -12 -9 -9 -7 2 -15 10 -17 17 -3 8 1 12 9 9 7 -2 15 -10 17 -17z"/>
<path d="M1087 374 c-16 -33 -16 -54 2 -54 4 0 13 11 19 25 15 32 37 34 28 3
-12 -37 -12 -51 -1 -55 10 -3 35 50 35 74 0 9 -52 43 -65 43 -1 0 -9 -16 -18
-36z"/>
<path d="M1810 400 c-12 -7 -10 -18 10 -59 13 -28 29 -51 37 -51 18 0 17 10
-10 68 -18 37 -27 48 -37 42z"/>
<path d="M1871 388 c-19 -49 39 -87 74 -48 16 17 16 20 2 20 -9 0 -19 -5 -22
-10 -4 -6 -11 -7 -17 -4 -6 4 0 13 16 21 22 12 25 17 15 29 -18 22 -58 17 -68
-8z m44 -8 c-3 -5 -10 -10 -16 -10 -5 0 -9 5 -9 10 0 6 7 10 16 10 8 0 12 -4
9 -10z"/>
<path d="M1260 348 c0 -17 -3 -19 -12 -10 -7 7 -22 12 -35 12 -41 0 -43 -84
-2 -85 8 0 20 -4 27 -9 7 -4 14 -6 15 -5 2 2 12 27 24 56 18 44 19 53 6 57
-22 9 -23 8 -23 -16z m-21 -54 c-9 -11 -15 -12 -25 -3 -11 9 -12 15 -3 25 9
11 15 12 25 3 11 -9 12 -15 3 -25z"/>
<path d="M1746 334 c-9 -8 -16 -22 -16 -29 0 -19 28 -45 49 -45 20 0 48 27 38
37 -4 3 -12 1 -20 -5 -17 -14 -42 1 -34 22 4 9 12 15 18 14 6 -2 14 3 16 10 7
18 -32 15 -51 -4z"/>
<path d="M1512 273 c2 -46 7 -58 21 -61 15 -3 17 1 11 22 -5 23 -3 26 20 26
19 0 26 -5 26 -20 0 -12 7 -20 16 -20 13 0 15 7 10 31 -3 17 -6 42 -6 55 0 15
-6 24 -15 24 -9 0 -15 -9 -15 -25 0 -18 -5 -25 -20 -25 -15 0 -20 7 -20 25 0
16 -6 25 -15 25 -13 0 -15 -11 -13 -57z"/>
<path d="M1302 308 c-29 -29 -7 -78 35 -78 13 0 23 5 23 10 0 6 -9 10 -19 10
-11 0 -23 5 -27 11 -4 8 3 9 25 4 28 -6 31 -4 31 18 0 34 -43 50 -68 25z m43
-18 c3 -5 -1 -10 -9 -10 -9 0 -16 5 -16 10 0 6 4 10 9 10 6 0 13 -4 16 -10z"/>
<path d="M1641 311 c-17 -11 1 -23 22 -15 8 3 18 1 22 -5 3 -7 -2 -11 -15 -11
-23 0 -38 -26 -23 -41 6 -6 26 -7 47 -4 33 7 35 10 30 34 -4 14 -11 32 -17 39
-11 14 -46 16 -66 3z m54 -51 c-3 -5 -10 -10 -16 -10 -5 0 -9 5 -9 10 0 6 7
10 16 10 8 0 12 -4 9 -10z"/>
<path d="M1397 304 c-4 -4 -7 -25 -7 -46 0 -27 4 -38 15 -38 8 0 15 9 15 20 0
11 7 23 15 26 8 4 15 13 15 21 0 9 -6 13 -14 10 -7 -3 -18 -1 -23 4 -5 5 -12
6 -16 3z"/>
</g>
</svg>
